<?xml version="1.0" encoding="iso-8859-1"?>
<!-- Uploaded to: SVG Repo, www.svgrepo.com, Generator: SVG Repo Mixer Tools -->
<svg height="800px" width="800px" version="1.1" id="Layer_1" xmlns="http://www.w3.org/2000/svg" xmlns:xlink="http://www.w3.org/1999/xlink" 
	 viewBox="0 0 512 512" xml:space="preserve">
<path style="fill:#39A3DB;" d="M492.91,230.978H19.09c-10.543,0-19.09-8.547-19.09-19.09V78.463c0-21.052,17.127-38.18,38.18-38.18
	h174.606c7.441,0,14.204,4.324,17.327,11.077l22.19,47.988h221.516c21.052,0,38.18,17.127,38.18,38.18v74.36
	C512,222.431,503.453,230.978,492.91,230.978z"/>
<path style="fill:#2275AA;" d="M473.82,99.347H256v131.63h236.91c10.543,0,19.09-8.547,19.09-19.09v-74.36
	C512,116.475,494.873,99.347,473.82,99.347z"/>
<path style="fill:#FFC72D;" d="M473.82,471.717H38.18c-21.087,0-38.18-17.093-38.18-38.18V192.799h512v240.738
	C512,454.622,494.906,471.717,473.82,471.717z"/>
<g>
	<path style="fill:#F59D00;" d="M256,192.799v278.918h217.82c21.087,0,38.18-17.093,38.18-38.18V192.799H256z"/>
	<path style="fill:#F59D00;" d="M316.17,313.168h-5.433c-5.819-16.635-19.011-29.827-35.647-35.647v-5.433
		c0-10.543-8.547-19.09-19.09-19.09s-19.09,8.547-19.09,19.09v5.433c-16.635,5.819-29.827,19.011-35.646,35.647h-5.433
		c-10.543,0-19.09,8.547-19.09,19.09c0,10.543,8.547,19.09,19.09,19.09h5.433c5.819,16.636,19.011,29.828,35.647,35.647v5.433
		c0,10.543,8.547,19.09,19.09,19.09c10.543,0,19.09-8.547,19.09-19.09v-5.433c16.635-5.819,29.827-19.011,35.647-35.647h5.433
		c10.543,0,19.09-8.547,19.09-19.09C335.26,321.715,326.713,313.168,316.17,313.168z M256,352.059
		c-10.918,0-19.801-8.883-19.801-19.801c0-10.918,8.883-19.801,19.801-19.801c10.918,0,19.801,8.882,19.801,19.801
		C275.801,343.177,266.918,352.059,256,352.059z"/>
</g>
<path style="fill:#E87E04;" d="M316.17,313.168h-5.433c-5.819-16.635-19.011-29.827-35.647-35.647v-5.433
	c0-10.543-8.547-19.09-19.09-19.09l0,0v59.459l0,0c10.918,0,19.801,8.882,19.801,19.801c0,10.919-8.883,19.801-19.801,19.801l0,0
	v59.459l0,0c10.543,0,19.09-8.547,19.09-19.09v-5.433c16.635-5.819,29.827-19.011,35.647-35.647h5.433
	c10.543,0,19.09-8.547,19.09-19.09C335.26,321.715,326.713,313.168,316.17,313.168z"/>
</svg>